<svg width="12" height="12" viewBox="0 0 12 12" fill="none" xmlns="http://www.w3.org/2000/svg">
<rect x="0.520508" y="0.975586" width="10.6295" height="10.6295" rx="1.06295" fill="#D2E1FE"/>
<g clip-path="url(#clip0_726_12444)">
<path d="M3.12338 4.11198L3.11432 8.5117C3.11402 8.65756 3.16393 8.79755 3.25308 8.90087C3.34223 9.0042 3.46331 9.06239 3.58969 9.06265L8.35471 9.07246C8.4179 9.07259 8.47856 9.04375 8.52335 8.99227C8.56813 8.94079 8.59338 8.8709 8.59353 8.79797L8.60146 4.94821C8.60161 4.87528 8.57665 4.80529 8.53208 4.75363C8.4875 4.70196 8.42696 4.67287 8.36377 4.67274L3.59875 4.66292C3.47237 4.66266 3.35129 4.60447 3.26214 4.50115C3.17299 4.39783 3.12308 4.25784 3.12338 4.11198ZM3.12338 4.11198C3.12368 3.96612 3.17417 3.82633 3.26374 3.72338C3.35332 3.62043 3.47464 3.56273 3.60101 3.56299L7.65128 3.57134" stroke="#2877EA" stroke-width="0.534557" stroke-linecap="round" stroke-linejoin="round"/>
<path d="M7.21862 7.28237C7.45356 7.28285 7.64439 7.09857 7.64486 6.87077C7.64533 6.64297 7.45526 6.4579 7.22032 6.45742C6.98538 6.45694 6.79454 6.64121 6.79407 6.86902C6.7936 7.09682 6.98368 7.28188 7.21862 7.28237Z" fill="#2877EA"/>
</g>
<defs>
<clipPath id="clip0_726_12444">
<rect width="6.37772" height="6.37772" fill="white" transform="translate(2.64648 3.10156)"/>
</clipPath>
</defs>
</svg>
