<svg width="32" height="32" viewBox="0 0 32 32" fill="none" xmlns="http://www.w3.org/2000/svg">
<rect x="0.5" y="0.5" width="31" height="31" rx="3.2085" stroke="white"/>
<path d="M24.9375 10.5H7.0625C6.6828 10.5 6.375 10.8078 6.375 11.1875V20.8125C6.375 21.1922 6.6828 21.5 7.0625 21.5H24.9375C25.3172 21.5 25.625 21.1922 25.625 20.8125V11.1875C25.625 10.8078 25.3172 10.5 24.9375 10.5Z" stroke="white" stroke-width="1.5" stroke-linecap="round" stroke-linejoin="round"/>
<path d="M16 18.75C17.5188 18.75 18.75 17.5188 18.75 16C18.75 14.4812 17.5188 13.25 16 13.25C14.4812 13.25 13.25 14.4812 13.25 16C13.25 17.5188 14.4812 18.75 16 18.75Z" stroke="white" stroke-width="1.5" stroke-linecap="round" stroke-linejoin="round"/>
<path d="M20.125 10.5L25.625 15.3125" stroke="white" stroke-width="1.5" stroke-linecap="round" stroke-linejoin="round"/>
<path d="M20.125 21.5L25.625 16.6875" stroke="white" stroke-width="1.5" stroke-linecap="round" stroke-linejoin="round"/>
<path d="M11.875 10.5L6.375 15.3125" stroke="white" stroke-width="1.5" stroke-linecap="round" stroke-linejoin="round"/>
<path d="M11.875 21.5L6.375 16.6875" stroke="white" stroke-width="1.5" stroke-linecap="round" stroke-linejoin="round"/>
</svg>
