<svg width="12" height="11" viewBox="0 0 12 11" fill="none" xmlns="http://www.w3.org/2000/svg">
<rect x="0.935059" y="0.0742188" width="10.6911" height="10.6911" rx="1.06911" fill="#D4FEE5"/>
<g clip-path="url(#clip0_726_12454)">
<path d="M4.14258 7.01841V4.80713C4.14258 3.83601 4.14258 3.35045 4.45571 3.04876C4.76885 2.74707 5.27284 2.74707 6.28081 2.74707C7.28878 2.74707 7.79276 2.74707 8.1059 3.04876C8.41903 3.35045 8.41903 3.83601 8.41903 4.80713V7.01841C8.41903 7.6347 8.41903 7.94285 8.21247 8.05316C7.81245 8.26676 7.06212 7.55413 6.70578 7.33956C6.49912 7.21512 6.39579 7.1529 6.28081 7.1529C6.16582 7.1529 6.06249 7.21512 5.85583 7.33956C5.4995 7.55413 4.74916 8.26676 4.34914 8.05316C4.14258 7.94285 4.14258 7.6347 4.14258 7.01841Z" stroke="#0F8152" stroke-width="0.400918" stroke-linecap="round" stroke-linejoin="round"/>
</g>
<defs>
<clipPath id="clip0_726_12454">
<rect width="6.41468" height="6.41468" fill="white" transform="translate(3.07324 2.2124)"/>
</clipPath>
</defs>
</svg>
