<svg width="20" height="21" viewBox="0 0 20 21" fill="none" xmlns="http://www.w3.org/2000/svg">
<rect y="0.814453" width="19.8848" height="19.8848" rx="1.98848" fill="#D2E1FE"/>
<g clip-path="url(#clip0_179_1670)">
<path d="M4.86897 6.67726L4.85202 14.9079C4.85146 15.1807 4.94484 15.4426 5.11161 15.6359C5.27838 15.8292 5.50489 15.938 5.7413 15.9385L14.6553 15.9569C14.7735 15.9571 14.887 15.9032 14.9707 15.8069C15.0545 15.7106 15.1017 15.5798 15.102 15.4434L15.1169 8.24161C15.1171 8.10518 15.0705 7.97424 14.9871 7.8776C14.9037 7.78096 14.7904 7.72653 14.6722 7.72628L5.75825 7.70792C5.52184 7.70744 5.29533 7.59858 5.12856 7.40529C4.96179 7.212 4.86841 6.95012 4.86897 6.67726ZM4.86897 6.67726C4.86954 6.4044 4.96399 6.14291 5.13156 5.95031C5.29912 5.75771 5.52608 5.64979 5.76249 5.65027L13.3394 5.66588" stroke="#2877EA" stroke-linecap="round" stroke-linejoin="round"/>
<path d="M12.5304 12.6088C12.9699 12.6097 13.3269 12.265 13.3278 11.8389C13.3287 11.4127 12.9731 11.0665 12.5336 11.0656C12.0941 11.0647 11.7371 11.4094 11.7362 11.8356C11.7353 12.2617 12.0909 12.6079 12.5304 12.6088Z" fill="#2877EA"/>
</g>
<defs>
<clipPath id="clip0_179_1670">
<rect width="11.9309" height="11.9309" fill="white" transform="translate(3.97705 4.7915)"/>
</clipPath>
</defs>
</svg>
