<svg width="22" height="23" viewBox="0 0 22 23" fill="none" xmlns="http://www.w3.org/2000/svg">
<rect y="0.214844" width="21.8848" height="21.8848" rx="2.18848" fill="#EEE2FF"/>
<g clip-path="url(#clip0_179_1745)">
<path d="M7.97543 13.0626C7.20138 13.5235 5.17187 14.4646 6.40798 15.6422C7.0118 16.2175 7.68431 16.6289 8.52982 16.6289H13.3545C14.2 16.6289 14.8725 16.2175 15.4763 15.6422C16.7124 14.4646 14.6829 13.5235 13.9089 13.0626C12.0937 11.9818 9.79056 11.9818 7.97543 13.0626Z" stroke="#6941C6" stroke-width="0.820679" stroke-linecap="round" stroke-linejoin="round"/>
<path d="M13.4041 8.14856C13.4041 9.5083 12.3018 10.6106 10.942 10.6106C9.58227 10.6106 8.47998 9.5083 8.47998 8.14856C8.47998 6.78881 9.58227 5.68652 10.942 5.68652C12.3018 5.68652 13.4041 6.78881 13.4041 8.14856Z" stroke="#6941C6" stroke-width="0.820679"/>
</g>
<defs>
<clipPath id="clip0_179_1745">
<rect width="13.1309" height="13.1309" fill="white" transform="translate(4.37695 4.5918)"/>
</clipPath>
</defs>
</svg>
