<svg width="46" height="41" viewBox="0 0 46 41" fill="none" xmlns="http://www.w3.org/2000/svg">
<rect x="0.5" y="1.28467" width="45" height="39" rx="4.5" stroke="#E0E0E0"/>
<path d="M14.1942 21.9801C13.3556 20.5663 13.0619 18.895 13.3683 17.2801C13.6747 15.6651 14.5601 14.2175 15.8582 13.2092C17.1564 12.2008 18.778 11.701 20.4186 11.8037C22.0591 11.9064 23.6058 12.6044 24.7681 13.7667C25.9305 14.929 26.6285 16.4757 26.7312 18.1163C26.8338 19.7568 26.3341 21.3785 25.3257 22.6766C24.3174 23.9748 22.8698 24.8602 21.2549 25.1666C19.6399 25.473 17.9686 25.1793 16.5549 24.3407L16.5549 24.3406L14.2236 25.0067C14.1271 25.0343 14.025 25.0355 13.9279 25.0104C13.8308 24.9852 13.7422 24.9345 13.6713 24.8636C13.6003 24.7927 13.5497 24.7041 13.5245 24.607C13.4993 24.5099 13.5006 24.4078 13.5282 24.3113L14.1943 21.98L14.1942 21.9801Z" stroke="#1D2026" stroke-width="1.5" stroke-linecap="round" stroke-linejoin="round"/>
<path d="M19.6309 25.2744C19.9627 26.2164 20.4993 27.0731 21.202 27.7828C21.9048 28.4925 22.7561 29.0374 23.6948 29.3785C24.6335 29.7196 25.6362 29.8482 26.6306 29.7551C27.625 29.6621 28.5864 29.3496 29.4455 28.8403L29.4455 28.8403L31.7768 29.5064C31.8732 29.5339 31.9753 29.5352 32.0724 29.51C32.1695 29.4849 32.2581 29.4342 32.3291 29.3632C32.4 29.2923 32.4507 29.2037 32.4758 29.1066C32.501 29.0095 32.4997 28.9074 32.4722 28.811L31.8061 26.4796L31.8061 26.4797C32.398 25.4816 32.7226 24.3478 32.7486 23.1877C32.7747 22.0276 32.5013 20.8804 31.9549 19.8567C31.4085 18.833 30.6075 17.9674 29.6291 17.3435C28.6508 16.7195 27.5281 16.3582 26.3695 16.2944" stroke="#1D2026" stroke-width="1.5" stroke-linecap="round" stroke-linejoin="round"/>
</svg>
