<svg width="46" height="41" viewBox="0 0 46 41" fill="none" xmlns="http://www.w3.org/2000/svg">
<rect x="0.5" y="1.28467" width="45" height="39" rx="4.5" stroke="#E0E0E0"/>
<path d="M19.6697 20.4861C20.4476 22.0766 21.7369 23.36 23.3309 24.1307C23.4475 24.186 23.5765 24.2099 23.7052 24.2002C23.8339 24.1904 23.9579 24.1473 24.0648 24.0752L26.4119 22.5101C26.5157 22.4408 26.6352 22.3986 26.7594 22.3872C26.8837 22.3758 27.0088 22.3955 27.1235 22.4447L31.5144 24.3265C31.6636 24.3899 31.7881 24.5 31.8693 24.6403C31.9504 24.7806 31.9838 24.9435 31.9643 25.1044C31.8255 26.1904 31.2956 27.1885 30.4739 27.912C29.6521 28.6355 28.5948 29.0346 27.5 29.0346C24.1185 29.0346 20.8755 27.6913 18.4844 25.3002C16.0933 22.9092 14.75 19.6661 14.75 16.2846C14.7501 15.1898 15.1492 14.1325 15.8726 13.3108C16.5961 12.489 17.5943 11.9591 18.6803 11.8204C18.8412 11.8009 19.004 11.8342 19.1443 11.9154C19.2846 11.9965 19.3947 12.121 19.4581 12.2702L21.3416 16.665C21.3903 16.7787 21.4101 16.9026 21.3994 17.0258C21.3886 17.149 21.3475 17.2677 21.2798 17.3711L19.7201 19.7542C19.6491 19.8614 19.6072 19.9852 19.5983 20.1135C19.5895 20.2418 19.614 20.3701 19.6697 20.4861V20.4861Z" stroke="#1D2026" stroke-width="1.5" stroke-linecap="round" stroke-linejoin="round"/>
</svg>
