<svg width="46" height="41" viewBox="0 0 46 41" fill="none" xmlns="http://www.w3.org/2000/svg">
<rect x="0.5" y="1.28467" width="45" height="39" rx="4.5" stroke="#E0E0E0"/>
<path d="M30.5 18.5347C30.5 25.2847 23 30.5347 23 30.5347C23 30.5347 15.5 25.2847 15.5 18.5347C15.5 16.5455 16.2902 14.6379 17.6967 13.2314C19.1032 11.8248 21.0109 11.0347 23 11.0347C24.9891 11.0347 26.8968 11.8248 28.3033 13.2314C29.7098 14.6379 30.5 16.5455 30.5 18.5347V18.5347Z" stroke="#1D2026" stroke-width="1.5" stroke-linecap="round" stroke-linejoin="round"/>
<path d="M23 21.5347C24.6569 21.5347 26 20.1915 26 18.5347C26 16.8778 24.6569 15.5347 23 15.5347C21.3431 15.5347 20 16.8778 20 18.5347C20 20.1915 21.3431 21.5347 23 21.5347Z" stroke="#1D2026" stroke-width="1.5" stroke-linecap="round" stroke-linejoin="round"/>
</svg>
