<svg width="149" height="40" viewBox="0 0 149 40" fill="none" xmlns="http://www.w3.org/2000/svg">
<path d="M32.5596 28.0225V4.52246H35.9096V28.0225H32.5596Z" fill="#282828"/>
<path d="M47.0909 28.0218C45.7451 28.0218 44.6992 27.8468 43.9576 27.4885C43.2242 27.1343 42.7159 26.5968 42.4409 25.8718C42.1617 25.1385 42.0242 24.2135 42.0242 23.0885V13.8218H38.8242V12.0718L42.3242 10.8718L43.6909 7.43848H45.3742V11.2385H50.7409V13.8218H45.3742V25.3385H50.4076V28.0218H47.0909Z" fill="#282828"/>
<path d="M63.5335 10.7053C65.3418 10.7053 66.8251 11.1136 67.9835 11.922C69.1376 12.722 69.9876 13.797 70.5335 15.1386C71.0751 16.472 71.3501 17.9678 71.3501 19.622C71.3501 21.2678 71.0751 22.7678 70.5335 24.122C69.9876 25.4678 69.1376 26.547 67.9835 27.3553C66.8251 28.1553 65.3418 28.5553 63.5335 28.5553C62.0335 28.5553 60.7668 28.2595 59.7335 27.672C58.7085 27.072 57.9043 26.2303 57.3168 25.1386V28.022H53.9668V4.52197H57.3168V14.122C57.9043 13.0345 58.7085 12.197 59.7335 11.6053C60.7668 11.0053 62.0335 10.7053 63.5335 10.7053ZM62.8335 25.872C64.6876 25.872 66.0043 25.3553 66.7835 24.322C67.571 23.2803 67.9668 21.7136 67.9668 19.622C67.9668 17.547 67.571 15.9886 66.7835 14.9553C66.0043 13.9136 64.6876 13.3886 62.8335 13.3886C61.0668 13.3886 59.7043 13.897 58.7501 14.9053C57.7918 15.9053 57.3168 17.4803 57.3168 19.622C57.3168 21.7803 57.7918 23.3636 58.7501 24.372C59.7043 25.372 61.0668 25.872 62.8335 25.872Z" fill="#282828"/>
<path d="M87.0788 11.2397H90.4288V28.0231H87.0788V24.3564C86.5872 25.5897 85.8705 26.6022 84.9288 27.3897C83.983 28.1647 82.7163 28.5564 81.1288 28.5564C78.8955 28.5564 77.2955 27.9689 76.3288 26.7897C75.3705 25.6022 74.8955 23.9064 74.8955 21.7064V11.2397H78.2455V21.4064C78.2455 22.5731 78.4163 23.4814 78.7622 24.1231C79.1163 24.7564 79.5872 25.1897 80.1788 25.4231C80.7663 25.6564 81.433 25.7731 82.1788 25.7731C83.6788 25.7731 84.8663 25.1647 85.7455 23.9397C86.633 22.7064 87.0788 20.8356 87.0788 18.3231V11.2397Z" fill="#282828"/>
<path d="M94.334 19.6247C94.334 17.9497 94.6548 16.4413 95.3007 15.108C95.9423 13.7663 96.9048 12.6997 98.184 11.908C99.459 11.108 101.038 10.708 102.917 10.708C104.659 10.708 106.121 11.008 107.301 11.608C108.476 12.1997 109.371 13.0038 109.984 14.0247C110.605 15.0372 110.938 16.2038 110.984 17.5247H107.817C107.684 16.4038 107.251 15.4372 106.517 14.6247C105.792 13.8038 104.638 13.3913 103.051 13.3913C101.417 13.3913 100.117 13.858 99.1507 14.7913C98.1923 15.7163 97.7173 17.3247 97.7173 19.6247C97.7173 21.983 98.184 23.6163 99.1173 24.5247C100.059 25.4247 101.351 25.8747 102.984 25.8747C104.617 25.8747 105.817 25.4538 106.584 24.608C107.359 23.7538 107.826 22.733 107.984 21.5413H111.151C111.105 22.7747 110.771 23.933 110.151 25.008C109.538 26.0747 108.634 26.9372 107.434 27.5913C106.234 28.233 104.751 28.558 102.984 28.558C101.105 28.558 99.5215 28.1622 98.234 27.3747C96.9423 26.5747 95.9715 25.5038 95.3173 24.158C94.659 22.8038 94.334 21.2913 94.334 19.6247Z" fill="#282828"/>
<path d="M127.24 28.0225L121.34 20.3391L118.173 23.3225V28.0225H114.823V4.52246H118.173V19.5891C118.473 19.235 118.765 18.8975 119.057 18.5725C119.344 18.2516 119.623 17.9683 119.89 17.7225L126.707 11.2391H130.807V11.3391L123.49 18.2891L131.44 28.0225H127.24Z" fill="#282828"/>
<path d="M133.337 22.4233H136.47C136.537 23.4483 136.937 24.315 137.67 25.0233C138.412 25.7233 139.604 26.0733 141.237 26.0733C142.737 26.0733 143.729 25.8358 144.22 25.3567C144.708 24.8817 144.954 24.2567 144.954 23.49C144.954 22.8025 144.754 22.265 144.354 21.8733C143.954 21.4733 143.304 21.2067 142.404 21.0733L138.254 20.44C136.795 20.2192 135.679 19.7192 134.904 18.94C134.137 18.1525 133.754 17.1192 133.754 15.84C133.754 14.2317 134.362 12.9692 135.587 12.0567C136.82 11.1358 138.537 10.6733 140.737 10.6733C142.904 10.6733 144.624 11.1692 145.904 12.1567C147.179 13.1358 147.874 14.4192 147.987 16.0067H144.62C144.529 15.2192 144.162 14.5483 143.52 13.99C142.887 13.4358 141.924 13.1567 140.637 13.1567C139.337 13.1567 138.404 13.3858 137.837 13.84C137.279 14.2983 137.004 14.865 137.004 15.54C137.004 16.0317 137.162 16.4733 137.487 16.8733C137.808 17.265 138.42 17.5233 139.32 17.6567L142.937 18.19C144.324 18.39 145.404 18.7358 146.17 19.2233C146.945 19.7025 147.487 20.2858 147.787 20.9733C148.095 21.665 148.254 22.4483 148.254 23.3233C148.254 25.0483 147.674 26.3525 146.52 27.24C145.362 28.115 143.57 28.5567 141.137 28.5567C139.304 28.5567 137.808 28.2817 136.654 27.74C135.495 27.1983 134.654 26.4567 134.12 25.5233C133.595 24.59 133.337 23.5567 133.337 22.4233Z" fill="#282828"/>
<mask id="mask0_701_6061" style="mask-type:luminance" maskUnits="userSpaceOnUse" x="54" y="13" width="17" height="17">
<path d="M54.6328 13.041H70.5828V29.041H54.6328V13.041Z" fill="white"/>
</mask>
<g mask="url(#mask0_701_6061)">
<path d="M67.6987 13.8873C68.907 14.679 69.6404 16.1915 69.982 17.6748C70.3279 19.1498 70.2779 20.5998 70.0487 21.9956C69.832 23.4081 69.4404 24.7665 68.6529 25.9456C67.8612 27.129 66.6904 28.129 65.3029 28.6498C63.9029 29.1831 62.3029 29.2415 60.932 28.7373C59.5695 28.2206 58.4404 27.1456 57.4029 25.9665C56.3654 24.7956 55.4112 23.529 55.0404 22.0748C54.6612 20.6165 54.8487 18.9706 55.5154 17.554C56.182 16.1331 57.3237 14.9456 58.6779 14.2206C60.0195 13.4998 61.5779 13.2415 63.1987 13.1456C64.8154 13.0415 66.4904 13.1081 67.6987 13.8873Z" fill="#282828"/>
</g>
<mask id="mask1_701_6061" style="mask-type:luminance" maskUnits="userSpaceOnUse" x="0" y="15" width="28" height="25">
<path d="M0 15.2539H27.9167V39.9997H0V15.2539Z" fill="white"/>
</mask>
<g mask="url(#mask1_701_6061)">
<path d="M22.9958 31.8667H18.3917L20.6958 35.85H6.89583L13.7958 23.9042L16.0917 27.8875H16.0958L18.3917 23.9L13.7958 15.9375L0 39.8333H27.5917L22.9958 31.8708V31.8667Z" fill="#2877EA"/>
</g>
<mask id="mask2_701_6061" style="mask-type:luminance" maskUnits="userSpaceOnUse" x="15" y="0" width="31" height="40">
<path d="M15.1191 0H45.6025V40H15.1191V0Z" fill="white"/>
</mask>
<g mask="url(#mask2_701_6061)">
<path d="M39.0915 27.8831L36.7915 31.8664L39.0915 35.8497H34.4915L20.6957 11.9539L22.9957 7.97057L25.2957 11.9539H29.8915L22.9957 0.00390625L16.0957 11.9539H16.0999L32.1915 39.8289V39.8331H45.9915L39.0915 27.8831Z" fill="#2877EA"/>
</g>
<mask id="mask3_701_6061" style="mask-type:luminance" maskUnits="userSpaceOnUse" x="53" y="0" width="6" height="5">
<path d="M53.4893 0H58.2309V4.74167H53.4893V0Z" fill="white"/>
</mask>
<g mask="url(#mask3_701_6061)">
<mask id="mask4_701_6061" style="mask-type:luminance" maskUnits="userSpaceOnUse" x="53" y="0" width="6" height="5">
<path d="M55.862 0C57.1704 0 58.2329 1.0625 58.2329 2.37083C58.2329 3.67917 57.1704 4.74167 55.862 4.74167C54.5537 4.74167 53.4912 3.67917 53.4912 2.37083C53.4912 1.0625 54.5537 0 55.862 0Z" fill="white"/>
</mask>
<g mask="url(#mask4_701_6061)">
<path d="M53.4912 0H58.2329V4.74167H53.4912V0Z" fill="#2877EA"/>
</g>
</g>
</svg>
