<svg width="46" height="41" viewBox="0 0 46 41" fill="none" xmlns="http://www.w3.org/2000/svg">
<rect x="0.5" y="1.28467" width="45" height="39" rx="4.5" stroke="#E0E0E0"/>
<path d="M15.2589 25.378C14.1408 23.493 13.7492 21.2647 14.1577 19.1114C14.5662 16.9581 15.7468 15.028 17.4776 13.6835C19.2085 12.339 21.3707 11.6727 23.5581 11.8096C25.7455 11.9464 27.8078 12.8772 29.3575 14.4269C30.9073 15.9767 31.838 18.0389 31.9749 20.2263C32.1118 22.4138 31.4455 24.5759 30.101 26.3068C28.7565 28.0377 26.8264 29.2183 24.6732 29.6268C22.5199 30.0353 20.2915 29.6437 18.4065 28.5256L18.4065 28.5255L15.2981 29.4136C15.1695 29.4503 15.0334 29.452 14.9039 29.4185C14.7744 29.3849 14.6563 29.3174 14.5617 29.2228C14.4671 29.1282 14.3996 29.01 14.366 28.8806C14.3325 28.7511 14.3341 28.615 14.3709 28.4864L15.259 25.378L15.2589 25.378Z" stroke="#1D2026" stroke-width="1.5" stroke-linecap="round" stroke-linejoin="round"/>
</svg>
